<mxfile host="app.diagrams.net" agent="Mozilla/5.0 (Windows NT 10.0; Win64; x64) AppleWebKit/537.36 (KHTML, like Gecko) Chrome/131.0.0.0 Safari/537.36 Edg/131.0.0.0" version="25.0.3">
  <diagram id="C5RBs43oDa-KdzZeNtuy" name="Page-1">
    <mxGraphModel dx="1042" dy="1734" grid="1" gridSize="10" guides="1" tooltips="1" connect="1" arrows="1" fold="1" page="1" pageScale="1" pageWidth="827" pageHeight="1169" math="0" shadow="0">
      <root>
        <mxCell id="WIyWlLk6GJQsqaUBKTNV-0" />
        <mxCell id="WIyWlLk6GJQsqaUBKTNV-1" parent="WIyWlLk6GJQsqaUBKTNV-0" />
        <mxCell id="pE-rhdhW8Pbe6GUfMftc-2" value="" style="edgeStyle=orthogonalEdgeStyle;rounded=0;orthogonalLoop=1;jettySize=auto;html=1;" edge="1" parent="WIyWlLk6GJQsqaUBKTNV-1" source="pE-rhdhW8Pbe6GUfMftc-0" target="pE-rhdhW8Pbe6GUfMftc-1">
          <mxGeometry relative="1" as="geometry" />
        </mxCell>
        <mxCell id="pE-rhdhW8Pbe6GUfMftc-0" value="START" style="ellipse;whiteSpace=wrap;html=1;" vertex="1" parent="WIyWlLk6GJQsqaUBKTNV-1">
          <mxGeometry x="354" y="-1110" width="120" height="80" as="geometry" />
        </mxCell>
        <mxCell id="pE-rhdhW8Pbe6GUfMftc-4" value="" style="edgeStyle=orthogonalEdgeStyle;rounded=0;orthogonalLoop=1;jettySize=auto;html=1;" edge="1" parent="WIyWlLk6GJQsqaUBKTNV-1" source="pE-rhdhW8Pbe6GUfMftc-1" target="pE-rhdhW8Pbe6GUfMftc-3">
          <mxGeometry relative="1" as="geometry" />
        </mxCell>
        <mxCell id="pE-rhdhW8Pbe6GUfMftc-1" value="input a,b" style="shape=parallelogram;perimeter=parallelogramPerimeter;whiteSpace=wrap;html=1;fixedSize=1;" vertex="1" parent="WIyWlLk6GJQsqaUBKTNV-1">
          <mxGeometry x="354" y="-940" width="120" height="60" as="geometry" />
        </mxCell>
        <mxCell id="pE-rhdhW8Pbe6GUfMftc-6" value="" style="edgeStyle=orthogonalEdgeStyle;rounded=0;orthogonalLoop=1;jettySize=auto;html=1;" edge="1" parent="WIyWlLk6GJQsqaUBKTNV-1" source="pE-rhdhW8Pbe6GUfMftc-3" target="pE-rhdhW8Pbe6GUfMftc-5">
          <mxGeometry relative="1" as="geometry" />
        </mxCell>
        <mxCell id="pE-rhdhW8Pbe6GUfMftc-3" value="sum=a+b" style="whiteSpace=wrap;html=1;" vertex="1" parent="WIyWlLk6GJQsqaUBKTNV-1">
          <mxGeometry x="354" y="-800" width="120" height="60" as="geometry" />
        </mxCell>
        <mxCell id="pE-rhdhW8Pbe6GUfMftc-10" value="" style="edgeStyle=orthogonalEdgeStyle;rounded=0;orthogonalLoop=1;jettySize=auto;html=1;" edge="1" parent="WIyWlLk6GJQsqaUBKTNV-1" source="pE-rhdhW8Pbe6GUfMftc-5" target="pE-rhdhW8Pbe6GUfMftc-7">
          <mxGeometry relative="1" as="geometry" />
        </mxCell>
        <mxCell id="pE-rhdhW8Pbe6GUfMftc-5" value="output sum" style="shape=parallelogram;perimeter=parallelogramPerimeter;whiteSpace=wrap;html=1;fixedSize=1;" vertex="1" parent="WIyWlLk6GJQsqaUBKTNV-1">
          <mxGeometry x="354" y="-660" width="120" height="60" as="geometry" />
        </mxCell>
        <mxCell id="pE-rhdhW8Pbe6GUfMftc-7" value="END" style="ellipse;whiteSpace=wrap;html=1;" vertex="1" parent="WIyWlLk6GJQsqaUBKTNV-1">
          <mxGeometry x="354" y="-560" width="120" height="80" as="geometry" />
        </mxCell>
      </root>
    </mxGraphModel>
  </diagram>
</mxfile>
